<svg xmlns="http://www.w3.org/2000/svg" width="817" height="805" viewBox="0 0 817 805">
<g>
<path d="M 443.12 160.46 C439.32,161.80 428.80,161.99 362.12,161.90 C319.98,161.84 284.15,161.47 282.50,161.06 C278.33,160.05 273.61,157.47 271.98,155.32 C270.80,153.76 270.80,153.68 272.00,154.75 C272.77,155.44 274.45,156.00 275.73,156.00 C277.01,156.00 278.32,156.68 278.64,157.50 C279.63,160.08 283.99,159.23 287.15,155.84 C290.75,151.98 290.75,147.87 287.15,147.03 L 284.80 146.48 L 284.94 122.36 C285.07,101.44 284.89,98.17 283.55,97.66 C281.10,96.72 281.74,92.37 284.85,88.78 C287.54,85.68 287.62,85.32 286.33,82.21 C284.67,78.23 281.07,76.52 279.34,78.89 C278.69,79.77 277.67,80.56 277.08,80.62 C276.49,80.69 275.44,80.82 274.75,80.90 C274.06,80.99 272.40,82.83 271.06,85.01 C268.32,89.46 267.06,89.70 269.33,85.34 C271.35,81.47 274.80,78.40 279.23,76.55 C282.47,75.20 292.85,75.00 361.50,75.00 C364.54,75.00 367.47,75.00 370.29,75.00 C435.93,74.99 443.38,74.99 447.96,78.61 C448.75,79.23 449.45,79.96 450.34,80.80 C456.45,86.61 456.50,86.89 456.50,117.50 C456.50,137.58 456.14,146.51 455.23,149.07 C453.55,153.82 448.50,158.56 443.12,160.46 ZM 457.00 631.57 C445.19,634.20 405.57,634.48 388.00,632.06 C361.14,628.36 340.64,623.34 328.33,617.44 C322.28,614.54 320.98,613.46 320.03,610.59 C318.48,605.90 320.61,600.82 324.87,599.05 C328.48,597.56 330.23,597.86 338.74,601.44 C356.49,608.92 385.09,613.88 415.25,614.71 C443.65,615.50 458.05,613.50 471.00,606.97 C477.74,603.57 480.47,600.75 482.47,595.10 C485.06,587.75 484.07,581.66 479.22,575.13 C474.54,568.83 468.96,567.29 448.50,566.65 C402.12,565.18 370.58,557.40 309.00,532.21 C298.27,527.82 286.24,523.17 282.26,521.87 C278.28,520.56 275.02,519.16 275.01,518.75 C275.00,518.34 277.52,518.00 280.59,518.00 C285.31,518.00 286.63,517.57 289.09,515.25 C290.69,513.74 292.00,511.98 292.00,511.33 C292.00,510.00 285.97,506.01 283.88,505.97 C283.12,505.96 280.02,504.34 277.00,502.38 C273.77,500.28 272.53,499.08 274.00,499.47 C283.23,501.92 298.14,507.28 314.56,514.03 C375.77,539.22 402.99,545.94 452.00,547.96 C468.45,548.64 472.41,549.12 477.34,550.99 C493.47,557.12 504.66,575.31 502.67,592.14 C502.10,596.92 502.17,597.08 504.29,596.41 C506.43,595.74 538.67,582.35 548.20,578.17 C551.83,576.58 552.77,576.44 552.34,577.57 C552.03,578.36 550.59,579.31 549.14,579.66 C547.69,580.01 545.27,581.25 543.77,582.40 C542.26,583.56 539.68,585.55 538.02,586.83 C534.77,589.33 534.13,591.00 536.43,591.00 C537.22,591.00 538.83,592.36 540.02,594.03 C541.21,595.70 541.80,596.99 541.34,596.91 C538.26,596.37 535.00,597.18 535.00,598.50 C535.00,600.65 538.70,600.36 541.23,598.00 C542.70,596.63 544.76,596.00 547.75,596.00 C550.16,596.00 554.36,595.04 557.10,593.86 C559.83,592.69 562.23,591.90 562.44,592.11 C562.98,592.65 529.09,607.05 512.20,613.46 C493.29,620.63 466.18,629.53 457.00,631.57 ZM 286.00 94.00 L 286.00 143.01 L 437.50 142.50 L 437.77 118.25 L 438.04 94.00 ZM 543.63 135.92 L 546.27 138.00 L 536.38 137.97 C530.95,137.95 525.67,137.46 524.66,136.87 C520.29,134.33 520.00,131.31 520.00,88.69 L 520.00 48.32 L 517.03 42.38 C513.70,35.72 510.39,32.20 504.51,29.10 L 500.53 27.00 L 362.01 26.80 C296.25,26.70 251.30,26.43 251.30,26.17 C251.30,26.13 252.43,26.09 254.79,26.05 C281.10,25.59 286.23,25.26 287.02,24.00 C288.51,21.65 288.19,21.00 285.56,21.00 C283.20,21.00 281.26,19.41 282.32,18.35 C282.60,18.06 284.67,17.59 286.92,17.28 C290.38,16.82 291.00,16.38 291.00,14.39 C291.00,12.64 290.30,11.89 288.25,11.44 C286.74,11.11 284.60,10.45 283.50,9.97 C282.40,9.49 280.60,8.90 279.50,8.66 C279.49,8.66 279.48,8.65 279.48,8.65 C279.48,8.41 329.48,8.28 391.52,8.36 L 505.54 8.50 L 512.52 11.89 C518.96,15.03 523.31,19.10 569.00,64.84 C587.10,82.96 597.15,93.11 597.08,93.19 C597.04,93.22 594.44,90.70 589.00,85.34 C572.78,69.36 558.48,55.96 557.24,55.57 C556.00,55.18 554.31,53.57 553.50,52.00 C552.69,50.43 551.12,48.85 550.01,48.50 C548.90,48.15 548.00,47.43 548.00,46.91 C548.00,46.38 546.99,45.49 545.75,44.92 C544.51,44.35 541.92,43.04 540.00,41.99 C534.87,39.21 533.15,39.47 536.08,42.58 C538.22,44.86 538.50,46.08 538.50,53.08 C538.50,57.44 538.72,61.00 539.00,61.00 C539.28,61.00 539.50,74.16 539.50,90.25 L 539.50 119.50 L 548.50 120.53 L 544.50 121.25 C542.30,121.65 539.26,121.98 537.75,121.99 C536.24,122.00 535.00,122.16 535.00,122.35 C535.00,123.76 538.52,129.25 540.18,130.41 C541.30,131.20 541.94,132.29 541.60,132.84 C541.26,133.39 542.17,134.78 543.63,135.92 ZM 550.00 403.45 C553.93,404.69 536.74,404.87 413.67,404.93 L 272.85 405.00 L 269.92 402.08 C265.39,397.54 266.36,390.41 271.91,387.55 C274.58,386.17 291.39,386.02 427.20,386.23 C504.00,386.34 560.14,386.55 560.14,386.71 C560.14,386.72 559.68,386.74 558.73,386.75 L 537.95 387.04 L 539.12 389.22 C539.87,390.62 539.93,391.52 539.29,391.74 C538.73,391.92 537.43,392.70 536.39,393.47 C534.59,394.81 534.67,395.04 538.25,398.44 C540.32,400.40 542.79,402.01 543.75,402.02 C544.71,402.02 547.53,402.67 550.00,403.45 ZM 542.25 221.27 C542.29,221.27 542.32,221.28 542.32,221.28 C542.32,221.49 483.50,221.73 409.67,221.83 L 272.85 222.00 L 269.92 219.08 C265.39,214.54 266.36,207.41 271.91,204.55 C274.58,203.17 291.40,203.02 426.70,203.19 C504.32,203.28 562.01,203.60 562.01,203.92 C562.01,203.95 561.68,203.97 561.00,204.00 C551.38,204.34 542.83,204.92 542.00,205.28 C541.17,205.64 539.15,206.44 537.50,207.05 C534.65,208.10 534.59,208.22 536.40,209.54 C537.93,210.67 538.06,211.22 537.08,212.40 C536.10,213.59 536.28,214.08 538.04,215.02 C539.63,215.87 539.92,216.48 539.11,217.29 C536.90,219.50 538.00,220.89 542.25,221.27 ZM 451.50 708.00 C443.17,708.91 402.32,709.11 392.00,708.30 C339.21,704.13 319.53,703.00 299.69,703.00 C287.21,703.00 277.00,702.66 277.00,702.24 C277.00,701.48 280.67,699.71 284.75,698.52 C287.22,697.80 287.96,693.51 285.75,692.71 C284.75,692.35 284.75,691.83 285.74,690.16 C286.91,688.18 286.62,687.95 280.74,686.02 L 274.50 683.97 L 305.50 684.44 C324.93,684.73 345.27,685.69 360.00,687.00 C389.27,689.61 436.43,690.70 450.96,689.11 C477.16,686.24 499.53,678.84 533.00,661.97 C544.83,656.01 553.63,651.66 552.58,652.32 C551.52,652.97 548.76,655.24 546.45,657.36 C544.14,659.48 540.50,662.20 538.37,663.39 C533.81,665.95 533.15,668.64 537.19,668.22 C539.78,667.95 539.84,668.07 538.94,671.22 C538.42,673.01 538.00,674.60 538.00,674.74 C538.00,675.60 546.80,674.80 547.75,673.85 C548.94,672.66 559.00,668.83 559.00,669.57 C559.00,670.28 521.49,688.81 512.75,692.41 C491.97,700.98 473.95,705.56 451.50,708.00 ZM 555.00 281.94 C557.52,282.41 496.33,282.83 416.17,282.89 L 272.85 283.00 L 269.92 280.08 C268.18,278.33 267.00,276.10 267.00,274.53 C267.00,269.92 270.46,265.00 273.69,265.00 C273.98,265.00 272.77,266.35 271.00,268.00 C268.39,270.43 267.91,271.50 268.44,273.63 C269.51,277.88 272.26,280.94 275.00,280.93 C279.51,280.90 286.43,279.21 286.82,278.04 C287.03,277.41 288.07,276.08 289.12,275.10 C291.00,273.35 290.97,273.27 287.82,270.66 C286.06,269.20 284.11,268.00 283.49,268.00 C282.87,268.00 280.59,267.12 278.43,266.04 C274.51,264.08 274.88,264.08 423.00,264.22 C500.48,264.29 559.53,264.61 559.53,264.94 C559.53,264.96 559.35,264.98 559.00,264.99 C550.72,265.41 545.28,266.18 542.88,267.27 C540.88,268.18 539.04,268.70 538.77,268.44 C538.50,268.17 537.73,268.62 537.05,269.43 C535.66,271.12 536.45,276.35 538.31,277.76 C539.47,278.64 545.90,280.25 555.00,281.94 ZM 544.00 343.27 C544.01,343.27 544.01,343.28 544.01,343.28 C544.01,343.59 483.65,343.88 409.17,343.92 L 272.85 344.00 L 269.92 341.08 C266.63,337.78 266.21,334.43 268.53,329.95 C270.16,326.78 271.69,325.85 270.49,328.75 C268.01,334.75 268.13,337.06 271.06,340.06 C273.91,342.98 278.28,343.98 279.50,342.00 C279.84,341.45 281.47,341.00 283.13,341.00 C286.24,341.00 293.37,336.41 292.49,334.98 C292.22,334.54 289.97,334.21 287.49,334.25 C285.01,334.29 282.72,334.05 282.39,333.73 C281.30,332.63 283.10,331.00 285.39,331.00 C286.64,331.00 287.95,330.72 288.29,330.38 C289.67,328.99 285.99,327.17 279.93,326.24 C275.57,325.57 322.49,325.27 426.00,325.31 C504.00,325.34 562.00,325.59 562.00,325.88 C562.00,325.90 561.67,325.92 561.00,325.94 C542.57,326.54 537.63,327.64 540.08,330.59 C540.74,331.39 541.11,332.15 540.89,332.27 C540.68,332.40 538.83,333.35 536.78,334.39 C534.73,335.43 533.23,336.56 533.45,336.89 C533.66,337.23 535.56,338.40 537.67,339.49 C539.78,340.59 541.72,341.76 542.00,342.09 C542.28,342.43 543.17,342.96 544.00,343.27 ZM 408.67 474.61 L 405.89 477.00 L 272.85 477.00 L 269.92 474.08 C265.22,469.37 266.49,462.42 272.58,459.53 C275.50,458.14 283.54,457.99 340.92,458.23 L 405.96 458.50 L 408.70 461.25 C412.60,465.14 412.58,471.24 408.67,474.61 ZM 270.96 218.46 C273.07,220.70 274.16,221.00 280.17,221.00 C283.93,221.00 287.03,220.66 287.06,220.25 C287.10,219.84 287.27,218.03 287.45,216.24 C287.66,214.04 287.25,212.68 286.18,212.08 C284.85,211.34 284.81,210.94 285.92,209.60 C288.05,207.03 285.57,205.00 280.31,205.00 C273.32,205.00 269.20,207.82 268.81,212.87 C268.66,214.94 269.35,216.74 270.96,218.46 ZM 271.17 473.69 C272.15,474.72 272.67,475.35 273.33,475.65 C274.30,476.08 275.57,475.82 279.01,475.13 C279.35,475.06 279.72,474.99 280.10,474.91 C285.80,473.76 288.71,470.73 286.88,467.84 C286.41,467.10 286.30,465.04 286.63,463.25 L 287.22 460.00 L 280.15 460.00 C274.16,460.00 272.77,460.34 271.04,462.19 C268.28,465.15 268.35,470.68 271.17,473.69 ZM 271.65 399.55 C273.74,401.49 275.35,402.00 279.40,401.98 C284.44,401.97 288.06,400.73 286.78,399.45 C286.42,399.09 286.53,397.73 287.03,396.43 C287.58,394.98 287.55,393.84 286.96,393.48 C286.43,393.15 286.00,391.83 286.00,390.53 C286.00,388.39 285.51,388.15 280.25,387.79 C275.82,387.49 273.87,387.83 271.75,389.27 C268.07,391.77 268.02,396.19 271.65,399.55 ZM 287.00 692.06 C287.00,693.28 291.70,693.29 292.46,692.07 C293.15,690.94 289.42,689.62 288.01,690.49 C287.45,690.84 287.00,691.54 287.00,692.06 ZM 269.95 149.44 C270.63,150.26 271.00,151.51 270.76,152.21 C270.49,153.02 269.88,152.64 269.09,151.16 C267.62,148.41 268.18,147.30 269.95,149.44 ZM 283.72 135.02 C283.63,136.30 283.59,136.85 283.41,136.90 C283.28,136.94 283.07,136.73 282.71,136.37 L 282.67 136.33 C281.64,135.30 281.88,131.81 282.94,132.46 C283.45,132.78 283.81,133.93 283.72,135.02 Z" fill="rgb(90,57,78)"/>
<path d="M 215.32 487.84 C211.85,489.68 208.40,489.20 205.08,486.41 L 202.00 483.82 L 202.00 13.18 L 205.09 10.58 L 208.18 7.97 L 356.86 8.24 L 505.54 8.50 L 391.52 8.36 C329.48,8.28 279.48,8.41 279.48,8.65 C279.48,8.65 279.49,8.66 279.50,8.66 C280.60,8.90 282.40,9.49 283.50,9.97 C284.60,10.45 286.74,11.11 288.25,11.44 C290.30,11.89 291.00,12.64 291.00,14.39 C291.00,16.38 290.38,16.82 286.92,17.28 C284.67,17.59 282.60,18.06 282.32,18.35 C281.26,19.41 283.20,21.00 285.56,21.00 C288.19,21.00 288.51,21.65 287.02,24.00 C286.23,25.26 281.10,25.59 254.79,26.05 C252.43,26.09 251.30,26.13 251.30,26.17 C251.30,26.43 296.25,26.70 362.01,26.80 L 500.53 27.00 L 220.00 27.00 L 219.97 255.25 C219.94,433.10 219.67,483.85 218.72,485.09 C218.05,485.96 216.52,487.20 215.32,487.84 ZM 598.21 541.70 C595.06,543.11 594.54,543.12 590.40,541.92 C586.14,540.68 582.18,536.47 581.41,532.35 C581.00,530.18 581.75,524.28 583.44,516.22 C588.77,490.93 598.01,446.55 600.07,436.33 C600.55,433.97 606.72,422.07 614.34,408.83 C621.72,396.00 635.29,372.45 644.49,356.50 C653.70,340.55 665.94,319.29 671.70,309.25 C677.46,299.21 682.33,291.00 682.53,291.00 C682.72,291.00 681.55,293.92 679.94,297.48 C678.32,301.04 677.00,304.59 677.00,305.36 C677.00,306.13 676.28,307.35 675.41,308.08 C674.53,308.81 672.79,311.45 671.54,313.95 C667.09,322.84 665.94,324.80 664.48,326.02 C663.67,326.69 663.00,328.10 663.00,329.15 C663.00,330.21 661.03,334.09 658.63,337.78 C653.28,346.01 652.27,349.54 654.57,352.08 C656.14,353.81 656.11,354.15 654.12,357.52 C651.91,361.27 651.32,365.00 652.94,365.00 C653.46,365.00 654.16,364.55 654.50,364.00 C654.84,363.45 655.96,363.00 656.99,363.00 C659.36,363.00 660.08,360.01 658.23,357.81 C656.15,355.35 657.71,353.43 660.06,355.56 C662.65,357.90 664.63,356.80 665.42,352.59 C665.78,350.63 666.88,348.60 667.86,348.08 C668.83,347.56 672.04,343.25 674.99,338.51 C677.94,333.78 680.79,329.63 681.33,329.29 C681.87,328.96 682.07,329.10 681.79,329.60 C681.50,330.09 672.59,345.58 661.99,364.00 C651.38,382.42 640.35,401.55 637.47,406.50 C623.02,431.30 622.97,431.40 624.26,432.56 C625.58,433.75 662.66,455.00 663.41,455.00 C663.65,455.00 667.07,449.38 671.00,442.50 C674.93,435.62 678.30,430.00 678.49,430.00 C679.39,430.00 676.61,437.73 675.08,439.50 C673.49,441.34 671.95,444.71 668.46,454.00 C667.51,456.51 666.63,457.40 665.32,457.16 C664.32,456.97 662.15,456.68 660.50,456.50 C658.85,456.32 655.83,455.46 653.78,454.59 C649.43,452.73 649.00,452.67 649.00,453.97 C649.00,454.51 650.35,455.65 652.00,456.50 C654.07,457.57 655.00,458.80 655.00,460.46 C655.00,462.19 655.63,462.95 657.25,463.18 C660.57,463.65 660.03,466.38 656.50,467.02 C653.45,467.58 653.21,468.30 654.55,472.75 C655.10,474.57 654.84,475.00 653.20,475.00 C648.76,475.00 650.55,478.77 657.18,483.42 C660.24,485.56 660.81,485.42 660.64,482.58 C660.56,481.25 660.05,480.24 659.51,480.33 C658.37,480.53 658.77,475.23 660.07,473.00 C660.72,471.87 660.95,472.16 660.97,474.17 C661.04,480.39 662.97,481.46 666.96,477.47 C668.36,476.08 671.19,473.55 673.25,471.86 C675.31,470.18 677.00,468.09 677.00,467.23 C677.00,466.36 677.60,464.95 678.33,464.08 C679.06,463.21 682.25,458.34 685.42,453.25 C688.59,448.16 691.42,444.00 691.70,444.00 C691.99,444.00 691.58,445.01 690.79,446.25 C689.99,447.49 686.04,454.27 682.00,461.31 C675.37,472.87 673.71,474.98 665.03,482.81 C618.11,525.18 600.53,540.68 598.21,541.70 ZM 543.63 135.92 C542.17,134.78 541.26,133.39 541.60,132.84 C541.94,132.29 541.30,131.20 540.18,130.41 C538.52,129.25 535.00,123.76 535.00,122.35 C535.00,122.16 536.24,122.00 537.75,121.99 C539.26,121.98 542.30,121.65 544.50,121.25 L 548.50 120.53 L 539.50 119.50 L 539.50 118.28 C539.55,118.91 539.61,119.28 539.67,119.33 C540.51,120.18 594.45,120.22 595.29,119.38 C596.12,118.55 541.89,63.00 540.26,63.00 C539.81,63.00 539.51,64.26 539.32,67.67 C539.23,63.51 539.12,61.00 539.00,61.00 C538.72,61.00 538.50,57.44 538.50,53.08 C538.50,46.08 538.22,44.86 536.08,42.58 C533.15,39.47 534.87,39.21 540.00,41.99 C541.92,43.04 544.51,44.35 545.75,44.92 C546.99,45.49 548.00,46.38 548.00,46.91 C548.00,47.43 548.90,48.15 550.01,48.50 C551.12,48.85 552.69,50.43 553.50,52.00 C554.31,53.57 556.00,55.18 557.24,55.57 C558.48,55.96 572.78,69.36 589.00,85.34 C594.44,90.70 597.04,93.22 597.08,93.19 C597.15,93.11 587.10,82.96 569.00,64.84 C556.64,52.47 547.30,43.14 540.13,36.06 C549.34,45.12 562.10,57.85 580.14,75.88 C613.50,109.22 642.19,138.49 643.90,140.91 C645.62,143.34 647.92,148.23 649.01,151.77 C650.93,157.98 651.00,161.19 651.00,243.18 L 651.00 328.15 L 648.08 331.08 C644.95,334.20 640.58,334.92 636.85,332.92 C636.37,332.66 635.94,332.44 635.55,332.15 C632.00,329.55 632.00,322.11 631.99,243.54 L 631.99 242.28 L 631.98 159.50 L 629.65 154.49 C626.97,148.74 621.61,143.64 615.05,140.61 C610.71,138.60 608.53,138.48 568.00,138.00 C559.95,137.91 552.34,137.77 545.78,137.61 ZM 198.15 770.25 C172.20,796.35 171.45,797.00 167.55,797.00 C163.63,797.00 162.91,796.35 128.03,761.29 C108.49,741.65 101.50,734.37 112.50,745.12 C123.50,755.86 135.61,767.54 139.41,771.07 C143.22,774.61 149.69,780.99 153.80,785.25 C157.91,789.51 162.04,793.00 162.97,793.00 C163.90,793.00 164.98,793.31 165.36,793.70 C166.64,794.97 168.85,794.82 169.39,793.43 C169.68,792.67 169.19,791.65 168.30,791.15 C166.37,790.07 167.23,787.00 169.47,787.00 C172.41,787.00 171.14,783.24 167.80,782.08 C164.93,781.08 164.76,780.81 166.14,779.43 C166.98,778.59 168.65,777.83 169.84,777.74 C173.00,777.50 170.38,775.25 166.50,774.87 C163.38,774.57 160.00,772.40 160.00,770.71 C160.00,770.17 159.17,769.01 158.15,768.12 C157.13,767.23 155.57,765.09 154.68,763.37 C153.80,761.65 151.82,759.13 150.29,757.78 C148.75,756.42 123.65,731.28 94.50,701.91 C69.23,676.43 56.05,663.15 56.09,663.11 C56.13,663.07 71.88,678.75 104.75,711.49 L 167.99 774.49 L 187.56 754.99 C198.33,744.27 207.78,734.28 208.57,732.80 C210.28,729.58 210.42,724.70 208.90,721.68 C208.29,720.48 182.75,694.34 152.15,663.58 C115.85,627.10 107.06,617.96 126.87,637.27 C143.58,653.56 158.79,667.62 160.68,668.52 C162.57,669.42 164.35,670.75 164.63,671.48 C164.91,672.21 166.06,673.04 167.19,673.34 C169.03,673.82 169.18,673.53 168.70,670.51 C168.20,667.46 168.43,667.05 171.20,666.08 C174.16,665.05 174.20,664.95 172.61,662.76 C171.70,661.52 169.64,658.47 168.04,655.99 C166.43,653.50 163.29,650.13 161.06,648.49 C158.83,646.84 154.70,642.44 151.89,638.69 C149.08,634.95 145.07,630.80 142.97,629.48 C140.87,628.16 138.87,626.18 138.53,625.08 C138.18,623.99 134.74,620.17 130.88,616.60 C127.03,613.03 122.93,608.85 121.79,607.30 C120.64,605.76 141.10,625.83 167.26,651.90 L 214.81 699.30 L 221.16 696.67 C233.97,691.34 245.54,688.68 272.14,684.93 C273.23,684.77 274.61,684.64 276.23,684.54 L 280.74 686.02 C286.62,687.95 286.91,688.18 285.74,690.16 C284.75,691.83 284.75,692.35 285.75,692.71 C287.96,693.51 287.22,697.80 284.75,698.52 C280.67,699.71 277.00,701.48 277.00,702.24 C277.00,702.66 287.21,703.00 299.69,703.00 C303.85,703.00 308.01,703.05 312.47,703.17 C306.99,703.10 301.19,703.15 294.00,703.28 C264.13,703.78 255.22,704.96 237.67,710.74 L 226.83 714.30 L 227.67 717.90 C229.04,723.82 228.54,733.29 226.58,738.56 C225.03,742.74 220.66,747.61 198.15,770.25 ZM 558.55 669.92 C558.84,669.74 559.00,669.62 559.00,669.57 C559.00,668.83 548.94,672.66 547.75,673.85 C546.80,674.80 538.00,675.60 538.00,674.74 C538.00,674.60 538.42,673.01 538.94,671.22 C539.84,668.07 539.78,667.95 537.19,668.22 C533.15,668.64 533.81,665.95 538.37,663.39 C540.50,662.20 544.14,659.48 546.45,657.36 C548.76,655.24 551.52,652.97 552.58,652.32 C553.63,651.66 544.83,656.01 533.00,661.97 C516.22,670.43 502.23,676.50 489.15,680.82 C502.33,676.46 516.44,670.30 533.50,661.67 C561.84,647.33 569.37,643.20 593.00,628.97 C653.78,592.38 683.88,570.91 689.50,560.13 C690.82,557.58 691.93,556.22 691.95,557.10 C692.03,559.64 686.27,566.99 679.10,573.49 C675.47,576.79 670.88,581.18 668.90,583.24 C666.93,585.31 664.85,587.00 664.30,587.00 C663.75,587.00 661.87,588.36 660.13,590.02 C657.61,592.44 657.10,593.56 657.62,595.63 C658.20,597.93 658.03,598.15 656.14,597.54 C654.96,597.17 653.01,597.18 651.80,597.56 L 649.60 598.26 L 651.91 600.13 C654.69,602.38 658.57,602.57 659.36,600.50 C660.17,598.38 661.67,598.64 662.29,601.00 C662.90,603.35 666.78,603.74 667.62,601.54 C667.93,600.73 669.14,599.77 670.31,599.40 C671.48,599.03 675.98,595.86 680.32,592.36 C684.65,588.86 688.64,586.00 689.19,586.00 C689.73,586.00 693.17,583.20 696.84,579.78 C703.05,573.97 703.16,573.91 698.50,578.87 C682.92,595.42 633.86,627.87 572.50,662.22 C567.66,664.93 563.02,667.50 558.55,669.92 ZM 273.41 499.60 C273.60,500.00 274.87,500.99 277.00,502.38 C280.02,504.34 283.12,505.96 283.88,505.97 C285.97,506.01 292.00,510.00 292.00,511.33 C292.00,511.98 290.69,513.74 289.09,515.25 C286.63,517.57 285.31,518.00 280.59,518.00 C277.52,518.00 275.00,518.34 275.01,518.75 C275.01,519.02 276.36,519.69 278.39,520.48 C264.54,515.94 255.58,514.65 244.48,514.70 C216.94,514.83 190.22,529.45 154.72,563.83 C139.70,578.37 137.82,579.63 149.26,567.50 C151.85,564.75 154.62,561.15 155.42,559.50 C156.22,557.85 158.71,554.71 160.96,552.52 C164.74,548.84 165.01,548.24 164.47,544.52 C163.94,540.82 164.13,540.37 166.95,538.80 C169.11,537.59 170.00,536.35 170.00,534.55 C170.00,531.06 167.00,531.19 162.78,534.87 C160.98,536.44 158.53,538.03 157.34,538.40 C156.16,538.77 153.35,541.07 151.10,543.51 C148.85,545.95 145.75,548.60 144.20,549.39 C142.66,550.19 139.45,553.02 137.08,555.67 C134.70,558.33 131.65,561.74 130.29,563.25 C128.94,564.76 127.31,565.98 126.67,565.96 C124.93,565.90 152.18,539.63 163.07,530.87 C176.61,519.98 184.06,514.96 196.00,508.67 C213.57,499.42 226.71,496.00 244.70,496.00 C254.03,496.00 263.10,497.07 273.41,499.60 ZM 515.67 612.12 C533.32,605.25 562.94,592.62 562.44,592.11 C562.23,591.90 559.83,592.69 557.10,593.86 C554.36,595.04 550.16,596.00 547.75,596.00 C544.76,596.00 542.70,596.63 541.23,598.00 C538.70,600.36 535.00,600.65 535.00,598.50 C535.00,597.18 538.26,596.37 541.34,596.91 C541.80,596.99 541.21,595.70 540.02,594.03 C538.83,592.36 537.22,591.00 536.43,591.00 C534.13,591.00 534.77,589.33 538.02,586.83 C539.68,585.55 542.26,583.56 543.77,582.40 C545.27,581.25 547.69,580.01 549.14,579.66 C550.59,579.31 552.03,578.36 552.34,577.57 C552.59,576.92 552.38,576.69 551.45,576.92 C552.03,576.68 552.55,576.47 553.00,576.28 C572.19,568.41 617.79,546.04 645.00,531.14 C662.90,521.34 668.36,519.63 679.90,520.19 C684.63,520.42 689.40,521.17 690.50,521.86 C692.29,522.99 692.19,523.05 689.50,522.41 C681.52,520.53 665.55,522.29 662.08,525.43 C660.43,526.93 658.64,527.63 655.75,527.92 C654.03,528.10 655.18,530.12 657.50,531.00 C661.59,532.55 660.67,535.00 656.00,535.00 C651.94,535.00 650.98,535.96 653.25,537.73 C655.45,539.45 659.26,539.93 661.41,538.76 C662.56,538.14 667.55,537.56 672.50,537.48 C679.69,537.35 682.35,537.73 685.71,539.34 C688.03,540.45 690.14,541.92 690.40,542.61 C690.67,543.30 689.27,542.77 687.30,541.43 C684.44,539.49 682.45,539.00 677.35,539.00 C671.31,539.00 670.16,539.43 655.74,547.02 C605.53,573.43 554.17,597.29 515.67,612.12 ZM 269.95 149.44 C268.29,147.44 267.69,148.29 268.83,150.65 L 267.50 148.65 L 267.50 118.57 C267.50,101.47 267.52,93.21 268.36,88.47 C268.76,88.32 269.74,87.15 271.06,85.01 C272.40,82.83 274.06,80.99 274.75,80.90 C275.44,80.82 276.49,80.69 277.08,80.62 C277.67,80.56 278.69,79.77 279.34,78.89 C281.07,76.52 284.67,78.23 286.33,82.21 C287.62,85.32 287.54,85.68 284.85,88.78 C281.74,92.37 281.10,96.72 283.55,97.66 C284.89,98.17 285.07,101.44 284.94,122.36 L 284.80 146.48 L 287.15 147.03 C290.75,147.87 290.75,151.98 287.15,155.84 C283.99,159.23 279.63,160.08 278.64,157.50 C278.32,156.68 277.01,156.00 275.73,156.00 C274.45,156.00 272.77,155.44 272.00,154.75 C271.54,154.34 271.25,154.10 271.14,154.04 C270.83,153.64 270.53,153.23 270.25,152.80 L 270.05 152.49 C270.37,152.74 270.62,152.65 270.76,152.21 C271.00,151.51 270.63,150.26 269.95,149.44 ZM 609.65 482.27 C606.19,498.65 603.68,511.92 604.07,511.77 C605.45,511.25 650.00,470.90 650.00,470.18 C650.00,468.75 616.50,449.96 616.22,451.24 C616.06,451.93 613.11,465.90 609.65,482.27 ZM 544.00 343.27 C543.17,342.96 542.28,342.43 542.00,342.09 C541.72,341.76 539.78,340.59 537.67,339.49 C535.56,338.40 533.66,337.23 533.45,336.89 C533.23,336.56 534.73,335.43 536.78,334.39 C538.83,333.35 540.68,332.40 540.89,332.27 C541.11,332.15 540.74,331.39 540.08,330.59 C537.63,327.64 542.57,326.54 561.00,325.94 C561.67,325.92 562.00,325.90 562.00,325.88 C562.00,325.59 504.00,325.34 426.00,325.31 C322.49,325.27 275.57,325.57 279.93,326.24 C285.99,327.17 289.67,328.99 288.29,330.38 C287.95,330.72 286.64,331.00 285.39,331.00 C283.10,331.00 281.30,332.63 282.39,333.73 C282.72,334.05 285.01,334.29 287.49,334.25 C289.97,334.21 292.22,334.54 292.49,334.98 C293.37,336.41 286.24,341.00 283.13,341.00 C281.47,341.00 279.84,341.45 279.50,342.00 C278.28,343.98 273.91,342.98 271.06,340.06 C268.13,337.06 268.01,334.75 270.49,328.75 C270.83,327.93 270.95,327.42 270.91,327.17 C276.87,324.97 299.94,325.01 403.81,325.20 C411.39,325.21 419.40,325.23 427.86,325.24 L 580.16 325.50 L 583.19 328.89 C585.75,331.75 586.13,332.84 585.64,335.89 C585.30,338.01 584.00,340.43 582.48,341.75 L 579.89 344.00 L 272.85 344.00 L 409.17 343.92 C483.65,343.88 544.01,343.59 544.01,343.28 C544.01,343.28 544.01,343.27 544.00,343.27 ZM 550.00 403.45 C547.53,402.67 544.71,402.02 543.75,402.02 C542.79,402.01 540.32,400.40 538.25,398.44 C534.67,395.04 534.59,394.81 536.39,393.47 C537.43,392.70 538.73,391.92 539.29,391.74 C539.93,391.52 539.87,390.62 539.12,389.22 L 537.95 387.04 L 558.73 386.75 C559.68,386.74 560.14,386.72 560.14,386.71 C560.14,386.55 504.00,386.34 427.20,386.23 C313.43,386.06 283.17,386.13 274.77,386.97 C283.20,386.12 313.57,386.00 427.05,386.00 L 579.20 386.00 L 582.60 389.40 C584.47,391.27 586.00,393.77 586.00,394.95 C586.00,397.93 583.37,402.73 581.06,403.97 C579.76,404.66 529.11,405.00 425.99,405.00 L 272.85 405.00 L 413.67 404.93 C536.74,404.87 553.93,404.69 550.00,403.45 ZM 542.25 221.27 C538.00,220.89 536.90,219.50 539.11,217.29 C539.92,216.48 539.63,215.87 538.04,215.02 C536.28,214.08 536.10,213.59 537.08,212.40 C538.06,211.22 537.93,210.67 536.40,209.54 C534.59,208.22 534.65,208.10 537.50,207.05 C539.15,206.44 541.17,205.64 542.00,205.28 C542.83,204.92 551.38,204.34 561.00,204.00 C561.68,203.97 562.01,203.95 562.01,203.92 C562.01,203.72 538.15,203.51 500.48,203.36 L 580.16 203.50 L 583.08 206.77 C586.89,211.02 586.89,214.83 583.10,218.89 L 580.20 222.00 L 272.85 222.00 L 409.67 221.83 C483.50,221.73 542.32,221.49 542.32,221.28 C542.32,221.28 542.29,221.27 542.25,221.27 ZM 555.00 281.94 C545.90,280.25 539.47,278.64 538.31,277.76 C536.45,276.35 535.66,271.12 537.05,269.43 C537.73,268.62 538.50,268.17 538.77,268.44 C539.04,268.70 540.88,268.18 542.88,267.27 C545.28,266.18 550.72,265.41 559.00,264.99 C559.35,264.98 559.53,264.96 559.53,264.94 C559.53,264.61 500.48,264.29 423.00,264.22 C402.98,264.20 385.66,264.18 370.68,264.18 C460.16,264.06 579.48,264.49 581.12,265.31 C582.02,265.75 583.55,267.60 584.52,269.41 C586.65,273.37 585.98,277.11 582.50,280.59 L 580.09 283.00 L 272.85 283.00 L 416.17 282.89 C496.33,282.83 557.52,282.41 555.00,281.94 ZM 270.96 218.46 C269.35,216.74 268.66,214.94 268.81,212.87 C269.20,207.82 273.32,205.00 280.31,205.00 C285.57,205.00 288.05,207.03 285.92,209.60 C284.81,210.94 284.85,211.34 286.18,212.08 C287.25,212.68 287.66,214.04 287.45,216.24 C287.27,218.03 287.10,219.84 287.06,220.25 C287.03,220.66 283.93,221.00 280.17,221.00 C274.16,221.00 273.07,220.70 270.96,218.46 ZM 280.88 264.69 C276.34,264.98 277.16,265.40 278.43,266.04 C280.59,267.12 282.87,268.00 283.49,268.00 C284.11,268.00 286.06,269.20 287.82,270.66 C290.97,273.27 291.00,273.35 289.12,275.10 C288.07,276.08 287.03,277.41 286.82,278.04 C286.43,279.21 279.51,280.90 275.00,280.93 C272.26,280.94 269.51,277.88 268.44,273.63 C267.91,271.50 268.39,270.43 271.00,268.00 C272.73,266.38 273.93,265.05 273.70,265.00 C273.72,265.00 273.74,264.99 273.76,264.99 C274.13,264.88 276.63,264.78 280.88,264.69 ZM 271.17 473.69 C268.35,470.68 268.28,465.15 271.04,462.19 C272.77,460.34 274.16,460.00 280.15,460.00 L 287.22 460.00 L 286.63 463.25 C286.30,465.04 286.41,467.10 286.88,467.84 C288.71,470.73 285.80,473.76 280.10,474.91 C279.72,474.99 279.35,475.06 279.01,475.13 C275.57,475.82 274.30,476.08 273.33,475.65 C272.67,475.35 272.15,474.72 271.17,473.69 ZM 271.65 399.55 C268.02,396.19 268.07,391.77 271.75,389.27 C273.87,387.83 275.82,387.49 280.25,387.79 C285.51,388.15 286.00,388.39 286.00,390.53 C286.00,391.83 286.43,393.15 286.96,393.48 C287.55,393.84 287.58,394.98 287.03,396.43 C286.53,397.73 286.42,399.09 286.78,399.45 C288.06,400.73 284.44,401.97 279.40,401.98 C275.35,402.00 273.74,401.49 271.65,399.55 ZM 166.19 544.28 C165.62,547.22 169.89,546.42 171.05,543.36 C171.60,541.91 171.92,540.58 171.74,540.41 C170.96,539.63 166.48,542.74 166.19,544.28 ZM 661.25 346.48 C660.94,348.11 660.10,349.00 658.88,349.00 C656.59,349.00 656.52,348.13 658.57,345.21 C660.51,342.44 661.90,343.10 661.25,346.48 ZM 287.00 692.06 C287.00,691.54 287.45,690.84 288.01,690.49 C289.42,689.62 293.15,690.94 292.46,692.07 C291.70,693.29 287.00,693.28 287.00,692.06 ZM 649.00 489.11 C649.00,490.49 650.62,490.16 652.00,488.50 C653.35,486.87 653.03,486.67 650.58,487.61 C649.71,487.94 649.00,488.62 649.00,489.11 ZM 348.77 686.14 C335.76,685.28 320.37,684.66 305.50,684.44 L 287.42 684.16 C303.70,683.97 328.13,684.72 348.77,686.14 ZM 283.72 135.02 C283.81,133.93 283.45,132.78 282.94,132.46 C281.88,131.81 281.64,135.30 282.67,136.33 L 282.71 136.37 C283.07,136.73 283.28,136.94 283.41,136.90 C283.59,136.85 283.63,136.30 283.72,135.02 ZM 650.50 607.00 C650.16,607.55 650.81,608.00 651.94,608.00 C653.07,608.00 654.00,607.55 654.00,607.00 C654.00,606.45 653.35,606.00 652.56,606.00 C651.77,606.00 650.84,606.45 650.50,607.00 ZM 516.17 690.91 C524.69,687.06 541.62,678.78 551.45,673.73 C538.40,680.66 526.87,686.32 516.17,690.91 ZM 174.67 533.33 C175.88,534.55 176.95,534.02 176.36,532.50 C176.05,531.67 175.38,531.00 174.89,531.00 C173.84,531.00 173.71,532.38 174.67,533.33 ZM 343.94 704.73 C352.76,705.31 363.10,706.06 375.63,707.02 C368.01,706.56 360.49,706.04 354.00,705.52 C350.35,705.22 347.02,704.96 343.94,704.73 ZM 377.22 536.84 C401.97,543.86 423.77,546.80 452.00,547.96 C423.34,546.78 402.13,543.99 377.22,536.84 ZM 322.32 517.20 C319.79,516.18 317.21,515.12 314.56,514.03 C304.45,509.87 294.92,506.25 286.93,503.50 C295.03,506.15 304.05,509.60 314.50,513.96 C317.17,515.08 319.77,516.15 322.32,517.20 ZM 278.75 76.75 C274.55,78.62 271.27,81.61 269.33,85.34 C269.16,85.66 269.02,85.96 268.89,86.23 C269.72,83.59 271.05,82.28 273.17,80.30 C273.91,79.61 274.51,79.01 275.18,78.49 C276.09,77.77 277.11,77.21 278.75,76.75 ZM 321.95 537.42 C343.10,545.79 360.62,551.90 376.75,556.32 C360.37,551.87 342.77,545.73 321.95,537.42 ZM 417.95 708.81 C424.83,708.80 431.93,708.73 437.93,708.60 C431.62,708.84 425.01,708.89 417.95,708.81 ZM 299.24 75.21 C310.72,75.00 328.10,75.00 354.94,75.00 C357.07,75.00 359.25,75.00 361.50,75.00 C330.33,75.00 311.17,75.04 299.24,75.21 ZM 506.58 595.54 C505.38,596.02 504.57,596.33 504.29,596.41 C502.98,596.83 502.45,596.92 502.38,595.80 C502.41,595.90 502.46,595.99 502.53,596.07 C502.97,596.55 504.08,596.42 506.58,595.54 ZM 270.03 327.58 C269.61,328.08 269.07,328.89 268.53,329.95 C266.92,333.05 266.63,335.61 267.69,337.98 C266.70,335.76 266.88,333.37 268.18,330.51 C268.49,329.83 268.64,329.24 268.92,328.71 C269.15,328.29 269.47,327.92 270.03,327.58 ZM 269.57 267.46 C268.36,268.96 267.43,270.97 267.12,273.04 C267.23,270.97 268.08,268.99 269.57,267.46 ZM 500.43 617.78 C483.33,623.89 465.20,629.69 457.35,631.49 C464.98,629.74 483.69,623.74 500.43,617.78 ZM 315.77 203.19 C280.50,203.33 273.58,203.71 271.93,204.54 C273.56,203.69 280.24,203.31 315.77,203.19 ZM 520.45 124.57 C520.96,133.43 522.06,135.27 524.37,136.69 C524.26,136.67 524.18,136.65 524.15,136.63 C521.99,135.24 520.95,133.41 520.45,124.57 ZM 540.71 581.38 C535.18,583.73 528.17,586.66 521.77,589.31 C522.95,588.82 524.19,588.30 525.50,587.75 C530.48,585.65 535.90,583.39 540.71,581.38 ZM 473.89 704.55 C479.54,703.38 485.05,701.99 490.57,700.34 C484.97,702.02 479.45,703.41 473.89,704.55 ZM 277.06 159.02 C278.78,159.89 280.69,160.62 282.50,161.06 C280.50,160.58 278.69,159.90 277.06,159.02 ZM 515.20 13.36 C514.27,12.78 513.42,12.33 512.52,11.89 L 505.65 8.55 L 512.52 11.88 C513.40,12.31 514.25,12.76 515.20,13.36 Z" fill="rgb(149,34,47)"/>
<path d="M 691.79 444.09 C691.78,444.03 691.75,444.00 691.70,444.00 C691.42,444.00 688.59,448.16 685.42,453.25 C682.25,458.34 679.06,463.21 678.33,464.08 C677.60,464.95 677.00,466.36 677.00,467.23 C677.00,468.09 675.31,470.18 673.25,471.86 C671.19,473.55 668.36,476.08 666.96,477.47 C662.97,481.46 661.04,480.39 660.97,474.17 C660.95,472.16 660.72,471.87 660.07,473.00 C658.77,475.23 658.37,480.53 659.51,480.33 C660.05,480.24 660.56,481.25 660.64,482.58 C660.81,485.42 660.24,485.56 657.18,483.42 C650.55,478.77 648.76,475.00 653.20,475.00 C654.84,475.00 655.10,474.57 654.55,472.75 C653.21,468.30 653.45,467.58 656.50,467.02 C660.03,466.38 660.57,463.65 657.25,463.18 C655.63,462.95 655.00,462.19 655.00,460.46 C655.00,458.80 654.07,457.57 652.00,456.50 C650.35,455.65 649.00,454.51 649.00,453.97 C649.00,452.67 649.43,452.73 653.78,454.59 C655.83,455.46 658.85,456.32 660.50,456.50 C662.15,456.68 664.32,456.97 665.32,457.16 C666.63,457.40 667.51,456.51 668.46,454.00 C671.95,444.71 673.49,441.34 675.08,439.50 C676.57,437.77 679.26,430.35 678.55,430.01 C678.75,429.74 678.88,429.57 678.95,429.53 C679.41,429.25 683.29,422.83 687.58,415.26 C699.48,394.28 715.72,365.96 737.03,329.00 C763.25,283.52 764.00,282.19 764.00,281.13 C764.00,280.62 758.94,277.27 752.75,273.69 C746.56,270.11 739.92,266.26 738.00,265.12 C731.59,261.33 725.08,258.00 724.08,258.00 C723.53,258.00 721.87,260.14 720.38,262.75 C718.88,265.36 713.74,274.25 708.94,282.50 C704.14,290.75 699.31,299.13 698.20,301.12 C697.09,303.10 686.08,322.23 673.72,343.62 L 671.78 346.97 C677.58,336.91 681.59,329.93 681.79,329.60 C682.07,329.10 681.87,328.96 681.33,329.29 C680.79,329.63 677.94,333.78 674.99,338.51 C672.04,343.25 668.83,347.56 667.86,348.08 C666.88,348.60 665.78,350.63 665.42,352.59 C664.63,356.80 662.65,357.90 660.06,355.56 C657.71,353.43 656.15,355.35 658.23,357.81 C660.08,360.01 659.36,363.00 656.99,363.00 C655.96,363.00 654.84,363.45 654.50,364.00 C654.16,364.55 653.46,365.00 652.94,365.00 C651.32,365.00 651.91,361.27 654.12,357.52 C656.11,354.15 656.14,353.81 654.57,352.08 C652.27,349.54 653.28,346.01 658.63,337.78 C661.03,334.09 663.00,330.21 663.00,329.15 C663.00,328.10 663.67,326.69 664.48,326.02 C665.94,324.80 667.09,322.84 671.54,313.95 C672.79,311.45 674.53,308.81 675.41,308.08 C676.28,307.35 677.00,306.13 677.00,305.36 C677.00,304.59 678.32,301.04 679.94,297.48 C681.26,294.57 682.27,292.09 682.50,291.28 C683.19,290.21 683.73,289.42 684.06,289.00 C685.56,287.08 690.14,279.42 694.24,272.00 C701.61,258.67 716.62,232.21 727.00,214.27 C735.96,198.76 745.28,191.56 759.71,188.98 C768.96,187.33 776.20,188.34 784.65,192.45 C804.26,201.98 813.66,225.05 806.08,245.03 C805.13,247.52 791.63,271.60 776.07,298.53 C760.51,325.46 743.49,354.92 738.26,364.00 C733.03,373.08 725.72,385.67 722.01,392.00 C718.31,398.33 712.27,408.67 708.59,415.00 C704.92,421.33 701.51,427.17 701.02,428.00 C700.63,428.64 696.80,435.33 691.79,444.09 ZM 104.73 711.23 C139.25,745.75 167.72,774.00 168.01,774.00 C168.98,774.00 204.91,737.41 208.61,732.72 C208.60,732.75 208.58,732.77 208.57,732.80 C207.78,734.28 198.33,744.27 187.56,754.99 L 167.99 774.49 L 104.75 711.49 C71.88,678.75 56.13,663.07 56.09,663.11 C56.05,663.15 69.23,676.43 94.50,701.91 C123.65,731.28 148.75,756.42 150.29,757.78 C151.82,759.13 153.80,761.65 154.68,763.37 C155.57,765.09 157.13,767.23 158.15,768.12 C159.17,769.01 160.00,770.17 160.00,770.71 C160.00,772.40 163.38,774.57 166.50,774.87 C170.38,775.25 173.00,777.50 169.84,777.74 C168.65,777.83 166.98,778.59 166.14,779.43 C164.76,780.81 164.93,781.08 167.80,782.08 C171.14,783.24 172.41,787.00 169.47,787.00 C167.23,787.00 166.37,790.07 168.30,791.15 C169.19,791.65 169.68,792.67 169.39,793.43 C168.85,794.82 166.64,794.97 165.36,793.70 C164.98,793.31 163.90,793.00 162.97,793.00 C162.04,793.00 157.91,789.51 153.80,785.25 C149.69,780.99 143.22,774.61 139.41,771.07 C135.61,767.54 123.50,755.86 112.50,745.12 C101.50,734.37 108.49,741.65 128.03,761.29 C133.42,766.71 137.99,771.30 141.88,775.20 C131.18,764.65 115.53,749.00 92.30,725.78 C53.12,686.61 20.55,653.32 19.92,651.80 C19.29,650.28 19.07,647.79 19.43,646.27 C19.86,644.43 28.73,634.89 45.79,617.91 C69.09,594.72 72.04,592.12 77.29,590.16 C84.14,587.60 95.28,587.26 100.52,589.44 L 103.97 590.88 L 109.29 585.19 C112.21,582.06 117.17,576.76 120.30,573.41 C123.44,570.06 126.00,566.85 126.00,566.27 C126.00,564.83 147.79,543.89 159.78,533.62 C147.53,544.13 125.08,565.90 126.67,565.96 C127.31,565.98 128.94,564.76 130.29,563.25 C131.65,561.74 134.70,558.33 137.08,555.67 C139.45,553.02 142.66,550.19 144.20,549.39 C145.75,548.60 148.85,545.95 151.10,543.51 C153.35,541.07 156.16,538.77 157.34,538.40 C158.53,538.03 160.98,536.44 162.78,534.87 C167.00,531.19 170.00,531.06 170.00,534.55 C170.00,536.35 169.11,537.59 166.95,538.80 C164.13,540.37 163.94,540.82 164.47,544.52 C165.01,548.24 164.74,548.84 160.96,552.52 C158.71,554.71 156.22,557.85 155.42,559.50 C154.62,561.15 151.85,564.75 149.26,567.50 C137.82,579.63 139.70,578.37 154.72,563.83 C156.22,562.37 157.71,560.95 159.18,559.57 C158.68,560.04 158.18,560.52 157.68,561.00 C144.97,573.29 121.58,598.31 119.63,601.73 C118.96,602.91 129.65,614.14 166.63,651.13 C192.95,677.46 214.77,699.00 215.12,699.00 C215.46,699.00 217.94,698.03 220.62,696.84 C224.39,695.18 228.54,693.69 233.39,692.31 C229.10,693.58 225.19,694.99 221.16,696.67 L 214.81 699.30 L 167.26 651.90 C141.10,625.83 120.64,605.76 121.79,607.30 C122.93,608.85 127.03,613.03 130.88,616.60 C134.74,620.17 138.18,623.99 138.53,625.08 C138.87,626.18 140.87,628.16 142.97,629.48 C145.07,630.80 149.08,634.95 151.89,638.69 C154.70,642.44 158.83,646.84 161.06,648.49 C163.29,650.13 166.43,653.50 168.04,655.99 C169.64,658.47 171.70,661.52 172.61,662.76 C174.20,664.95 174.16,665.05 171.20,666.08 C168.43,667.05 168.20,667.46 168.70,670.51 C169.18,673.53 169.03,673.82 167.19,673.34 C166.06,673.04 164.91,672.21 164.63,671.48 C164.35,670.75 162.57,669.42 160.68,668.52 C158.79,667.62 143.58,653.56 126.87,637.27 C107.06,617.96 115.85,627.10 152.15,663.58 C156.20,667.65 160.16,671.64 163.99,675.51 C132.17,643.71 94.73,606.96 93.16,606.50 C91.88,606.12 89.18,606.11 87.16,606.48 C84.09,607.05 80.15,610.49 62.74,627.81 L 41.97 648.47 ZM 753.00 252.49 C763.72,258.72 772.95,263.71 773.50,263.59 C774.67,263.32 781.50,252.29 786.21,243.05 C788.95,237.68 789.50,235.50 789.50,229.97 C789.50,224.34 789.05,222.61 786.48,218.45 C784.81,215.76 781.60,212.26 779.35,210.68 C771.10,204.88 756.76,206.40 749.68,213.82 C747.40,216.21 734.10,238.23 733.67,240.33 C733.58,240.79 742.28,246.26 753.00,252.49 ZM 701.53 575.46 C700.97,575.93 699.44,577.35 696.84,579.78 C693.17,583.20 689.73,586.00 689.19,586.00 C688.64,586.00 684.65,588.86 680.32,592.36 C675.98,595.86 671.48,599.03 670.31,599.40 C669.14,599.77 667.93,600.73 667.62,601.54 C666.78,603.74 662.90,603.35 662.29,601.00 C661.67,598.64 660.17,598.38 659.36,600.50 C658.57,602.57 654.69,602.38 651.91,600.13 L 649.60 598.26 L 651.80 597.56 C653.01,597.18 654.96,597.17 656.14,597.54 C658.03,598.15 658.20,597.93 657.62,595.63 C657.10,593.56 657.61,592.44 660.13,590.02 C661.87,588.36 663.75,587.00 664.30,587.00 C664.85,587.00 666.93,585.31 668.90,583.24 C670.88,581.18 675.47,576.79 679.10,573.49 C686.27,566.99 692.03,559.64 691.95,557.10 C691.93,556.22 690.82,557.58 689.50,560.13 C687.17,564.60 680.63,570.90 669.45,579.36 C680.72,570.77 687.22,564.32 689.94,559.29 C694.44,550.99 693.75,545.95 687.48,541.55 C689.35,542.80 690.66,543.28 690.40,542.61 C690.14,541.92 688.03,540.45 685.71,539.34 C682.35,537.73 679.69,537.35 672.50,537.48 C667.55,537.56 662.56,538.14 661.41,538.76 C659.26,539.93 655.45,539.45 653.25,537.73 C650.98,535.96 651.94,535.00 656.00,535.00 C660.67,535.00 661.59,532.55 657.50,531.00 C655.18,530.12 654.03,528.10 655.75,527.92 C658.64,527.63 660.43,526.93 662.08,525.43 C665.55,522.29 681.52,520.53 689.50,522.41 C691.93,522.99 692.25,522.99 690.96,522.16 C698.25,524.58 703.69,529.20 707.55,536.17 C710.21,540.97 710.50,542.40 710.50,550.55 C710.50,558.99 710.25,560.12 706.77,567.16 C705.36,570.01 703.69,572.71 701.53,575.46 ZM 817.00 275.55 L 817.00 682.12 C817.00,575.09 816.81,559.09 815.53,558.02 C814.23,556.94 814.23,556.46 815.53,553.95 C816.81,551.46 817.00,516.34 817.00,275.55 ZM 166.19 544.28 C166.48,542.74 170.96,539.63 171.74,540.41 C171.92,540.58 171.60,541.91 171.05,543.36 C169.89,546.42 165.62,547.22 166.19,544.28 ZM 661.25 346.48 C661.90,343.10 660.51,342.44 658.57,345.21 C656.52,348.13 656.59,349.00 658.88,349.00 C660.10,349.00 660.94,348.11 661.25,346.48 ZM 649.00 489.11 C649.00,488.62 649.71,487.94 650.58,487.61 C653.03,486.67 653.35,486.87 652.00,488.50 C650.62,490.16 649.00,490.49 649.00,489.11 ZM 447.41 632.83 C442.24,633.32 436.27,633.53 428.00,633.72 C412.43,634.08 404.31,633.86 394.44,632.75 C409.65,634.04 432.97,634.02 447.41,632.83 ZM 650.50 607.00 C650.84,606.45 651.77,606.00 652.56,606.00 C653.35,606.00 654.00,606.45 654.00,607.00 C654.00,607.55 653.07,608.00 651.94,608.00 C650.81,608.00 650.16,607.55 650.50,607.00 ZM 174.67 533.33 C173.71,532.38 173.84,531.00 174.89,531.00 C175.38,531.00 176.05,531.67 176.36,532.50 C176.95,534.02 175.88,534.55 174.67,533.33 ZM 670.85 601.41 C683.55,592.36 693.06,584.64 698.50,578.87 C699.28,578.04 699.92,577.35 700.43,576.81 C694.77,583.55 686.00,590.78 670.85,601.41 ZM 655.74 547.02 C619.42,566.13 585.73,582.44 554.63,595.98 C585.80,582.30 621.05,565.27 655.74,547.02 ZM 636.00 409.02 C633.50,413.37 631.10,417.52 629.40,420.48 C626.23,425.99 623.88,430.87 623.82,432.03 C623.31,430.89 624.99,427.91 636.00,409.02 ZM 198.64 528.67 C214.71,519.14 229.47,514.77 244.48,514.70 C229.64,514.77 214.64,519.28 198.64,528.67 ZM 417.95 708.81 C425.00,708.89 431.62,708.84 437.93,708.60 L 437.93 708.60 C438.18,708.59 438.42,708.59 438.67,708.58 C430.23,708.96 421.10,709.02 411.02,708.79 C413.27,708.80 415.60,708.81 417.95,708.81 ZM 382.42 707.54 C373.62,707.01 364.18,706.34 354.00,705.52 C360.49,706.04 368.01,706.56 375.63,707.02 L 375.63 707.02 C377.82,707.19 380.09,707.36 382.42,707.54 ZM 462.32 630.21 C469.18,628.30 479.22,625.11 489.76,621.51 C486.47,622.65 483.22,623.74 480.00,624.80 C472.61,627.23 467.14,628.96 462.32,630.21 ZM 663.21 454.93 C663.74,454.67 667.17,449.20 670.99,442.52 C667.06,449.39 663.65,455.00 663.41,455.00 C663.38,455.00 663.32,454.98 663.21,454.93 ZM 624.21 432.51 C625.74,433.54 632.07,437.30 639.85,441.81 C631.88,437.22 624.82,433.06 624.26,432.56 ZM 208.64 721.34 C208.78,721.51 208.87,721.63 208.90,721.68 C209.64,723.15 209.98,725.06 209.95,727.00 C209.91,725.01 209.47,722.97 208.64,721.34 ZM 516.17 690.91 C518.46,689.93 520.78,688.90 523.15,687.82 C519.36,689.58 515.88,691.12 512.76,692.41 C513.63,692.05 514.79,691.54 516.17,690.91 ZM 665.53 319.99 C659.30,330.81 651.11,345.03 644.49,356.50 C635.29,372.45 621.72,396.00 614.34,408.83 C621.72,396.00 635.29,372.45 644.49,356.50 C651.20,344.87 659.42,330.60 665.53,319.99 ZM 672.58 475.48 C670.58,477.78 668.39,479.78 665.03,482.81 C668.35,479.81 670.65,477.65 672.58,475.48 ZM 487.61 701.21 C488.60,700.93 489.58,700.64 490.57,700.34 L 490.57 700.34 C497.71,698.21 504.86,695.65 512.37,692.57 C503.95,696.02 495.86,698.89 487.61,701.21 ZM 668.92 520.74 C662.80,521.91 656.44,524.87 645.00,531.14 C656.46,524.87 662.81,521.91 668.92,520.74 ZM 684.10 539.76 C682.40,539.19 680.41,539.00 677.35,539.00 C680.45,539.00 682.40,539.18 684.10,539.76 Z" fill="rgb(200,15,21)"/>
<path d="M 0.00 402.50 L 0.00 0.00 L 408.50 0.00 L 817.00 0.00 L 817.00 275.55 C817.00,516.34 816.81,551.46 815.53,553.95 C814.23,556.46 814.23,556.94 815.53,558.02 C816.81,559.09 817.00,575.09 817.00,682.12 L 817.00 805.00 L 408.50 805.00 L 0.00 805.00 L 0.00 402.50 ZM 198.15 770.25 C220.66,747.61 225.03,742.74 226.58,738.56 C228.54,733.29 229.04,723.82 227.67,717.90 L 226.83 714.30 L 237.67 710.74 C255.22,704.96 264.13,703.78 294.00,703.28 C316.60,702.89 325.43,703.22 354.00,705.52 C438.04,712.27 471.22,709.53 512.76,692.41 C544.62,679.27 614.51,639.66 659.50,609.22 C690.56,588.21 700.92,578.99 706.77,567.16 C710.25,560.12 710.50,558.99 710.50,550.55 C710.50,542.40 710.21,540.97 707.55,536.17 C701.94,526.04 692.99,520.87 679.90,520.21 C668.37,519.62 662.93,521.32 645.00,531.14 C617.79,546.04 572.19,568.41 553.00,576.28 C548.33,578.20 535.95,583.36 525.50,587.75 C499.69,598.58 501.96,598.14 502.67,592.14 C504.66,575.31 493.47,557.12 477.34,550.99 C472.41,549.12 468.45,548.64 452.00,547.96 C403.12,545.94 373.54,538.63 314.50,513.96 C282.91,500.76 264.40,496.00 244.70,496.00 C226.71,496.00 213.57,499.42 196.00,508.67 C184.08,514.95 176.61,519.98 163.15,530.81 C152.53,539.35 126.00,564.68 126.00,566.27 C126.00,566.85 123.44,570.06 120.30,573.41 C117.17,576.76 112.21,582.06 109.29,585.19 L 103.97 590.88 L 100.52 589.44 C95.28,587.26 84.14,587.60 77.29,590.16 C72.04,592.12 69.09,594.72 45.79,617.91 C28.73,634.89 19.86,644.43 19.43,646.27 C19.07,647.79 19.29,650.28 19.92,651.80 C20.55,653.32 53.12,686.61 92.30,725.78 C162.89,796.35 163.58,797.00 167.55,797.00 C171.45,797.00 172.18,796.37 198.15,770.25 ZM 598.21 541.70 C600.52,540.68 618.07,525.21 665.00,482.84 C674.50,474.26 674.71,473.96 687.36,451.84 C694.38,439.55 700.53,428.83 701.02,428.00 C701.51,427.17 704.92,421.33 708.59,415.00 C712.27,408.67 718.31,398.33 722.01,392.00 C725.72,385.67 733.03,373.08 738.26,364.00 C743.49,354.92 760.51,325.46 776.07,298.53 C791.63,271.60 805.13,247.52 806.08,245.03 C813.66,225.05 804.26,201.98 784.65,192.45 C776.20,188.34 768.96,187.33 759.71,188.98 C745.28,191.56 735.96,198.76 727.00,214.27 C716.62,232.21 701.61,258.67 694.24,272.00 C690.14,279.42 685.56,287.08 684.06,289.00 C682.56,290.92 676.80,300.38 671.27,310.00 C665.74,319.62 653.69,340.55 644.49,356.50 C635.29,372.45 621.72,396.00 614.34,408.83 C606.72,422.07 600.55,433.97 600.07,436.33 C598.01,446.55 588.77,490.93 583.44,516.22 C581.75,524.28 581.00,530.18 581.41,532.35 C582.18,536.47 586.14,540.68 590.40,541.92 C594.54,543.12 595.06,543.11 598.21,541.70 ZM 215.32 487.84 C216.52,487.20 218.05,485.96 218.72,485.09 C219.67,483.85 219.94,433.10 219.97,255.25 L 220.00 27.00 L 360.26 27.00 L 500.53 27.00 L 504.51 29.10 C510.39,32.20 513.70,35.72 517.03,42.38 L 520.00 48.32 L 520.00 88.69 C520.00,130.32 520.33,134.17 524.15,136.63 C524.89,137.11 544.62,137.73 568.00,138.00 C608.53,138.48 610.71,138.60 615.05,140.61 C621.61,143.64 626.97,148.74 629.65,154.49 L 631.98 159.50 L 631.99 242.28 C632.00,330.75 631.98,330.31 636.85,332.92 C640.58,334.92 644.95,334.20 648.08,331.08 L 651.00 328.15 L 651.00 243.18 C651.00,161.19 650.93,157.98 649.01,151.77 C647.92,148.23 645.62,143.34 643.90,140.91 C642.19,138.49 613.50,109.22 580.14,75.88 C523.71,19.47 519.02,15.03 512.52,11.88 L 505.54 8.50 L 356.86 8.24 L 208.18 7.97 L 205.09 10.58 L 202.00 13.18 L 202.00 248.50 L 202.00 483.82 L 205.08 486.41 C208.40,489.20 211.85,489.68 215.32,487.84 ZM 408.67 474.61 C412.58,471.24 412.60,465.14 408.70,461.25 L 405.96 458.50 L 340.92 458.23 C283.54,457.99 275.50,458.14 272.58,459.53 C266.49,462.42 265.22,469.37 269.92,474.08 L 272.85 477.00 L 339.37 477.00 L 405.89 477.00 L 408.67 474.61 ZM 581.06 403.97 C583.37,402.73 586.00,397.93 586.00,394.95 C586.00,393.77 584.47,391.27 582.60,389.40 L 579.20 386.00 L 427.05 386.00 C291.67,386.00 274.57,386.17 271.91,387.55 C266.36,390.41 265.39,397.54 269.92,402.08 L 272.85 405.00 L 425.99 405.00 C529.11,405.00 579.76,404.66 581.06,403.97 ZM 582.48 341.75 C584.00,340.43 585.30,338.01 585.64,335.89 C586.13,332.84 585.75,331.75 583.19,328.89 L 580.16 325.50 L 427.86 325.24 C261.81,324.96 270.84,324.66 268.18,330.51 C266.25,334.73 266.78,337.94 269.92,341.08 L 272.85 344.00 L 426.37 344.00 L 579.89 344.00 L 582.48 341.75 ZM 582.50 280.59 C585.98,277.11 586.65,273.37 584.52,269.41 C583.55,267.60 582.02,265.75 581.12,265.31 C578.50,264.00 278.21,263.69 273.76,264.99 C266.90,266.98 264.86,275.01 269.92,280.08 L 272.85 283.00 L 426.47 283.00 L 580.09 283.00 L 582.50 280.59 ZM 583.10 218.89 C586.89,214.83 586.89,211.02 583.08,206.77 L 580.16 203.50 L 427.55 203.24 C291.02,203.01 274.62,203.15 271.93,204.54 C266.37,207.41 265.38,214.54 269.92,219.08 L 272.85 222.00 L 426.52 222.00 L 580.20 222.00 L 583.10 218.89 ZM 443.12 160.46 C448.50,158.56 453.55,153.82 455.23,149.07 C456.14,146.51 456.50,137.58 456.50,117.50 C456.50,86.89 456.45,86.61 450.34,80.80 C444.00,74.78 447.38,75.00 361.50,75.00 C276.54,75.00 279.00,74.85 273.17,80.30 C267.58,85.51 267.50,86.05 267.50,118.57 L 267.50 148.65 L 270.25 152.80 C273.04,157.01 277.09,159.75 282.50,161.06 C284.15,161.47 319.98,161.84 362.12,161.90 C428.80,161.99 439.32,161.80 443.12,160.46 ZM 104.73 711.23 L 41.97 648.47 L 62.74 627.81 C80.15,610.49 84.09,607.05 87.16,606.48 C89.18,606.11 91.88,606.12 93.16,606.50 C95.88,607.30 206.43,717.18 208.56,721.20 C210.28,724.42 210.42,729.30 208.89,732.32 C207.81,734.45 169.02,774.00 168.01,774.00 C167.72,774.00 139.25,745.75 104.73,711.23 ZM 166.63 651.13 C129.65,614.14 118.96,602.91 119.63,601.73 C121.58,598.31 144.97,573.29 157.68,561.00 C190.42,529.39 217.73,514.82 244.48,514.70 C262.40,514.62 274.74,518.01 311.08,533.01 C369.45,557.08 402.61,565.20 448.50,566.65 C468.96,567.29 474.54,568.83 479.22,575.13 C484.07,581.66 485.06,587.75 482.47,595.10 C480.47,600.75 477.74,603.57 471.00,606.97 C458.05,613.50 443.65,615.50 415.25,614.71 C385.09,613.88 356.49,608.92 338.74,601.44 C330.23,597.86 328.48,597.56 324.87,599.05 C320.61,600.82 318.48,605.90 320.03,610.59 C320.98,613.46 322.28,614.54 328.33,617.44 C341.39,623.70 364.52,629.14 392.50,632.53 C403.29,633.83 411.43,634.11 428.00,633.72 C452.57,633.15 456.89,632.41 480.00,624.80 C529.70,608.45 588.15,582.57 655.74,547.02 C670.16,539.43 671.31,539.00 677.34,539.00 C682.31,539.00 684.45,539.50 687.09,541.28 C693.72,545.75 694.53,550.83 689.94,559.29 C683.46,571.26 655.58,591.30 593.00,628.97 C569.37,643.20 561.84,647.33 533.50,661.67 C499.62,678.81 477.34,686.22 450.96,689.11 C436.47,690.70 389.34,689.61 360.00,687.02 C329.83,684.34 284.02,683.26 272.14,684.93 C246.17,688.59 231.75,691.92 220.62,696.84 C217.94,698.03 215.46,699.00 215.12,699.00 C214.77,699.00 192.95,677.46 166.63,651.13 ZM 609.65 482.27 C613.11,465.90 616.06,451.93 616.22,451.24 C616.50,449.96 650.00,468.75 650.00,470.18 C650.00,470.90 605.45,511.25 604.07,511.77 C603.68,511.92 606.19,498.65 609.65,482.27 ZM 643.58 443.97 C633.17,437.97 624.30,432.70 623.86,432.26 C623.43,431.83 625.92,426.53 629.40,420.48 C632.88,414.44 639.22,403.42 643.49,396.00 C647.77,388.58 661.37,365.00 673.72,343.62 C686.08,322.23 697.09,303.10 698.20,301.12 C699.31,299.13 704.14,290.75 708.94,282.50 C713.74,274.25 718.88,265.36 720.38,262.75 C721.87,260.14 723.53,258.00 724.08,258.00 C725.08,258.00 731.59,261.33 738.00,265.12 C739.92,266.26 746.56,270.11 752.75,273.69 C758.94,277.27 764.00,280.62 764.00,281.13 C764.00,282.19 763.25,283.52 737.03,329.00 C715.72,365.96 699.48,394.28 687.58,415.26 C683.29,422.83 679.41,429.25 678.95,429.53 C678.50,429.81 674.92,435.66 670.99,442.52 C667.06,449.38 663.55,454.97 663.18,454.94 C662.80,454.91 653.99,449.97 643.58,443.97 ZM 753.00 252.49 C742.28,246.26 733.58,240.79 733.67,240.33 C734.10,238.23 747.40,216.21 749.68,213.82 C756.76,206.40 771.10,204.88 779.35,210.68 C781.60,212.26 784.81,215.76 786.48,218.45 C789.05,222.61 789.50,224.34 789.50,229.97 C789.50,235.50 788.95,237.68 786.21,243.05 C781.50,252.29 774.67,263.32 773.50,263.59 C772.95,263.71 763.72,258.72 753.00,252.49 ZM 539.67 119.33 C539.30,118.97 539.00,106.14 539.00,90.83 C539.00,69.10 539.28,63.00 540.26,63.00 C541.89,63.00 596.12,118.55 595.29,119.38 C594.45,120.22 540.51,120.18 539.67,119.33 ZM 286.00 118.51 L 286.00 94.00 L 362.02 94.00 L 438.04 94.00 L 437.77 118.25 L 437.50 142.50 L 361.75 142.76 L 286.00 143.01 L 286.00 118.51 Z" fill="rgb(254,253,254)"/>
</g>
</svg>